<?xml version="1.0" encoding="UTF-8"?>
<!DOCTYPE svg PUBLIC "-//W3C//DTD SVG 1.1//EN" "http://www.w3.org/Graphics/SVG/1.1/DTD/svg11.dtd">
<svg xmlns="http://www.w3.org/2000/svg" version="1.1" width="1024px" height="1024px" style="shape-rendering:geometricPrecision; text-rendering:geometricPrecision; image-rendering:optimizeQuality; fill-rule:evenodd; clip-rule:evenodd" xmlns:xlink="http://www.w3.org/1999/xlink">
<g><path style="opacity:0.306" fill="#e3e2d9" d="M 537.5,209.5 C 537.631,210.376 537.298,211.043 536.5,211.5C 533.355,209.522 530.688,207.022 528.5,204C 525.823,203.751 523.49,202.751 521.5,201C 518.474,198.161 515.474,195.328 512.5,192.5C 503.094,187.965 493.761,183.131 484.5,178C 471.432,172.533 458.099,167.867 444.5,164C 408.159,155.696 371.826,155.529 335.5,163.5C 335.5,164.5 335.5,165.5 335.5,166.5C 334.041,166.433 332.708,166.766 331.5,167.5C 326.363,169.147 321.029,170.314 315.5,171C 309.54,175.103 302.874,176.603 295.5,175.5C 314.14,166.904 333.474,160.738 353.5,157C 410.768,150.049 463.768,161.049 512.5,190C 521.135,196.24 529.469,202.74 537.5,209.5 Z"/></g>
<g><path style="opacity:1" fill="#fee7cd" d="M 537.5,209.5 C 538.492,209.328 539.158,209.662 539.5,210.5C 539.598,212.215 539.598,214.049 539.5,216C 542.833,218 545.5,220.667 547.5,224C 548.448,224.483 549.448,224.649 550.5,224.5C 550.383,226.484 551.05,228.15 552.5,229.5C 557.893,232.939 561.893,237.605 564.5,243.5C 568.031,245.558 570.364,248.558 571.5,252.5C 572.748,253.04 573.915,253.707 575,254.5C 577.316,258.801 579.983,262.801 583,266.5C 583.483,267.448 583.649,268.448 583.5,269.5C 582.127,269.657 580.793,269.49 579.5,269C 580.696,268.346 580.696,267.846 579.5,267.5C 575.104,268.2 570.437,268.533 565.5,268.5C 565.256,264.211 563.589,263.544 560.5,266.5C 558.469,264.751 558.135,262.751 559.5,260.5C 556.914,259.52 554.247,259.187 551.5,259.5C 551.5,255.5 551.5,251.5 551.5,247.5C 546.167,247.5 540.833,247.5 535.5,247.5C 535.5,244.833 535.5,242.167 535.5,239.5C 532.833,239.5 530.167,239.5 527.5,239.5C 527.5,236.833 527.5,234.167 527.5,231.5C 522.167,231.5 516.833,231.5 511.5,231.5C 511.5,228.833 511.5,226.167 511.5,223.5C 508.833,223.5 506.167,223.5 503.5,223.5C 503.5,220.833 503.5,218.167 503.5,215.5C 500.833,215.5 498.167,215.5 495.5,215.5C 495.5,212.833 495.5,210.167 495.5,207.5C 490.167,207.5 484.833,207.5 479.5,207.5C 479.5,204.833 479.5,202.167 479.5,199.5C 471.5,199.5 463.5,199.5 455.5,199.5C 455.5,196.833 455.5,194.167 455.5,191.5C 450.167,191.5 444.833,191.5 439.5,191.5C 439.5,188.833 439.5,186.167 439.5,183.5C 428.833,183.5 418.167,183.5 407.5,183.5C 407.5,180.833 407.5,178.167 407.5,175.5C 387.643,175.196 367.81,175.53 348,176.5C 345.46,175.815 342.96,174.981 340.5,174C 343.956,173.82 347.289,173.153 350.5,172C 350.957,171.586 351.291,171.086 351.5,170.5C 350.167,170.167 348.833,169.833 347.5,169.5C 337.93,171.31 328.597,173.643 319.5,176.5C 319.5,177.5 319.5,178.5 319.5,179.5C 316.833,179.5 314.167,179.5 311.5,179.5C 311.5,180.833 311.5,182.167 311.5,183.5C 309.167,183.5 306.833,183.5 304.5,183.5C 304.5,181.5 304.5,179.5 304.5,177.5C 306.857,177.663 309.19,177.497 311.5,177C 314.162,172.923 317.828,171.423 322.5,172.5C 325.793,171.199 328.793,169.532 331.5,167.5C 332.708,166.766 334.041,166.433 335.5,166.5C 335.5,165.5 335.5,164.5 335.5,163.5C 371.826,155.529 408.159,155.696 444.5,164C 458.099,167.867 471.432,172.533 484.5,178C 493.761,183.131 503.094,187.965 512.5,192.5C 515.474,195.328 518.474,198.161 521.5,201C 523.49,202.751 525.823,203.751 528.5,204C 530.688,207.022 533.355,209.522 536.5,211.5C 537.298,211.043 537.631,210.376 537.5,209.5 Z"/></g>
<g><path style="opacity:1" fill="#feebd1" d="M 331.5,167.5 C 328.793,169.532 325.793,171.199 322.5,172.5C 317.828,171.423 314.162,172.923 311.5,177C 309.19,177.497 306.857,177.663 304.5,177.5C 304.5,179.5 304.5,181.5 304.5,183.5C 306.833,183.5 309.167,183.5 311.5,183.5C 311.5,182.167 311.5,180.833 311.5,179.5C 314.167,179.5 316.833,179.5 319.5,179.5C 319.5,178.5 319.5,177.5 319.5,176.5C 328.597,173.643 337.93,171.31 347.5,169.5C 348.833,169.833 350.167,170.167 351.5,170.5C 351.291,171.086 350.957,171.586 350.5,172C 347.289,173.153 343.956,173.82 340.5,174C 342.96,174.981 345.46,175.815 348,176.5C 367.81,175.53 387.643,175.196 407.5,175.5C 407.5,178.167 407.5,180.833 407.5,183.5C 418.167,183.5 428.833,183.5 439.5,183.5C 439.5,186.167 439.5,188.833 439.5,191.5C 444.833,191.5 450.167,191.5 455.5,191.5C 455.5,194.167 455.5,196.833 455.5,199.5C 463.5,199.5 471.5,199.5 479.5,199.5C 479.5,202.167 479.5,204.833 479.5,207.5C 484.833,207.5 490.167,207.5 495.5,207.5C 495.5,210.167 495.5,212.833 495.5,215.5C 498.167,215.5 500.833,215.5 503.5,215.5C 503.5,218.167 503.5,220.833 503.5,223.5C 506.167,223.5 508.833,223.5 511.5,223.5C 511.5,226.167 511.5,228.833 511.5,231.5C 516.833,231.5 522.167,231.5 527.5,231.5C 527.5,234.167 527.5,236.833 527.5,239.5C 530.167,239.5 532.833,239.5 535.5,239.5C 535.5,242.167 535.5,244.833 535.5,247.5C 540.833,247.5 546.167,247.5 551.5,247.5C 551.5,251.5 551.5,255.5 551.5,259.5C 554.247,259.187 556.914,259.52 559.5,260.5C 558.135,262.751 558.469,264.751 560.5,266.5C 563.589,263.544 565.256,264.211 565.5,268.5C 556.599,270.136 547.599,271.969 538.5,274C 537.944,274.383 537.611,274.883 537.5,275.5C 531.905,276.814 526.238,277.98 520.5,279C 518.582,281.928 515.915,283.594 512.5,284C 508.559,288 503.892,290 498.5,290C 497.479,286.691 496.479,286.691 495.5,290C 495.903,291.473 496.57,292.806 497.5,294C 495.235,295.118 492.901,295.951 490.5,296.5C 490.649,297.552 490.483,298.552 490,299.5C 484.761,303.07 480.594,307.57 477.5,313C 475.779,313.739 474.113,314.573 472.5,315.5C 471.784,317.908 470.451,319.908 468.5,321.5C 468.594,320.028 467.594,318.862 465.5,318C 465.833,317.667 466.167,317.333 466.5,317C 465.552,316.517 464.552,316.351 463.5,316.5C 463.5,317.5 463.5,318.5 463.5,319.5C 460.833,319.5 458.167,319.5 455.5,319.5C 455.5,322.167 455.5,324.833 455.5,327.5C 452.833,327.5 450.167,327.5 447.5,327.5C 447.5,324.833 447.5,322.167 447.5,319.5C 444.833,319.5 442.167,319.5 439.5,319.5C 439.5,316.833 439.5,314.167 439.5,311.5C 436.833,311.5 434.167,311.5 431.5,311.5C 431.768,308.881 431.435,306.381 430.5,304C 398.835,303.5 367.168,303.333 335.5,303.5C 335.805,298.238 335.471,293.072 334.5,288C 313.503,287.5 292.503,287.333 271.5,287.5C 271.805,282.238 271.471,277.072 270.5,272C 254.759,271.183 239.092,271.35 223.5,272.5C 218.36,271.512 213.026,271.179 207.5,271.5C 207.5,274.167 207.5,276.833 207.5,279.5C 204.833,279.5 202.167,279.5 199.5,279.5C 197.279,272.048 198.945,265.715 204.5,260.5C 205.928,254.054 209.428,249.054 215,245.5C 216.634,242.52 218.3,239.52 220,236.5C 222.735,234.184 225.568,232.018 228.5,230C 229.46,228.581 230.293,227.081 231,225.5C 237.178,220.25 243.011,214.75 248.5,209C 252.187,206.967 255.853,204.967 259.5,203C 260.719,199.204 263.385,197.037 267.5,196.5C 270.216,192.806 273.883,190.639 278.5,190C 281.652,187.46 284.652,184.96 287.5,182.5C 289.637,181.058 291.97,179.891 294.5,179C 295.337,177.989 295.67,176.822 295.5,175.5C 302.874,176.603 309.54,175.103 315.5,171C 321.029,170.314 326.363,169.147 331.5,167.5 Z"/></g>
<g><path style="opacity:0.871" fill="#f1e6d6" d="M 539.5,210.5 C 552.052,222.22 564.219,234.553 576,247.5C 578.615,251.783 581.615,255.783 585,259.5C 586.118,261.765 586.951,264.099 587.5,266.5C 588.038,268.117 588.371,269.784 588.5,271.5C 586.833,271.5 585.167,271.5 583.5,271.5C 576.167,271.5 568.833,271.5 561.5,271.5C 553.464,272.617 545.464,273.95 537.5,275.5C 537.611,274.883 537.944,274.383 538.5,274C 547.599,271.969 556.599,270.136 565.5,268.5C 570.437,268.533 575.104,268.2 579.5,267.5C 580.696,267.846 580.696,268.346 579.5,269C 580.793,269.49 582.127,269.657 583.5,269.5C 583.649,268.448 583.483,267.448 583,266.5C 579.983,262.801 577.316,258.801 575,254.5C 573.915,253.707 572.748,253.04 571.5,252.5C 570.364,248.558 568.031,245.558 564.5,243.5C 561.893,237.605 557.893,232.939 552.5,229.5C 551.05,228.15 550.383,226.484 550.5,224.5C 549.448,224.649 548.448,224.483 547.5,224C 545.5,220.667 542.833,218 539.5,216C 539.598,214.049 539.598,212.215 539.5,210.5 Z"/></g>
<g><path style="opacity:1" fill="#feefd7" d="M 287.5,182.5 C 284.652,184.96 281.652,187.46 278.5,190C 273.883,190.639 270.216,192.806 267.5,196.5C 263.385,197.037 260.719,199.204 259.5,203C 255.853,204.967 252.187,206.967 248.5,209C 243.011,214.75 237.178,220.25 231,225.5C 230.293,227.081 229.46,228.581 228.5,230C 225.568,232.018 222.735,234.184 220,236.5C 218.3,239.52 216.634,242.52 215,245.5C 209.428,249.054 205.928,254.054 204.5,260.5C 198.945,265.715 197.279,272.048 199.5,279.5C 202.167,279.5 204.833,279.5 207.5,279.5C 207.5,276.833 207.5,274.167 207.5,271.5C 213.026,271.179 218.36,271.512 223.5,272.5C 223.5,282.833 223.5,293.167 223.5,303.5C 239.5,303.5 255.5,303.5 271.5,303.5C 271.5,306.167 271.5,308.833 271.5,311.5C 279.5,311.5 287.5,311.5 295.5,311.5C 295.5,314.167 295.5,316.833 295.5,319.5C 303.5,319.5 311.5,319.5 319.5,319.5C 319.5,316.833 319.5,314.167 319.5,311.5C 322.167,311.5 324.833,311.5 327.5,311.5C 327.5,314.167 327.5,316.833 327.5,319.5C 335.5,319.5 343.5,319.5 351.5,319.5C 351.5,322.167 351.5,324.833 351.5,327.5C 356.833,327.5 362.167,327.5 367.5,327.5C 367.5,324.833 367.5,322.167 367.5,319.5C 378.167,319.5 388.833,319.5 399.5,319.5C 399.5,324.833 399.5,330.167 399.5,335.5C 404.833,335.5 410.167,335.5 415.5,335.5C 415.5,338.167 415.5,340.833 415.5,343.5C 418.167,343.5 420.833,343.5 423.5,343.5C 423.5,346.167 423.5,348.833 423.5,351.5C 426.167,351.5 428.833,351.5 431.5,351.5C 431.5,338.167 431.5,324.833 431.5,311.5C 434.167,311.5 436.833,311.5 439.5,311.5C 439.5,314.167 439.5,316.833 439.5,319.5C 442.167,319.5 444.833,319.5 447.5,319.5C 447.5,322.167 447.5,324.833 447.5,327.5C 450.167,327.5 452.833,327.5 455.5,327.5C 455.5,324.833 455.5,322.167 455.5,319.5C 458.167,319.5 460.833,319.5 463.5,319.5C 463.5,318.5 463.5,317.5 463.5,316.5C 464.552,316.351 465.552,316.517 466.5,317C 466.167,317.333 465.833,317.667 465.5,318C 467.594,318.862 468.594,320.028 468.5,321.5C 470.451,319.908 471.784,317.908 472.5,315.5C 474.113,314.573 475.779,313.739 477.5,313C 480.594,307.57 484.761,303.07 490,299.5C 490.483,298.552 490.649,297.552 490.5,296.5C 492.901,295.951 495.235,295.118 497.5,294C 496.57,292.806 495.903,291.473 495.5,290C 496.479,286.691 497.479,286.691 498.5,290C 503.892,290 508.559,288 512.5,284C 515.915,283.594 518.582,281.928 520.5,279C 526.238,277.98 531.905,276.814 537.5,275.5C 511.463,284.681 489.63,300.014 472,321.5C 464.555,332.687 457.388,344.021 450.5,355.5C 447.622,356.577 445.122,358.244 443,360.5C 439.983,367.568 436.816,374.568 433.5,381.5C 431.833,382.833 430.167,384.167 428.5,385.5C 429.609,387.214 428.942,387.881 426.5,387.5C 425.514,391.443 424.848,395.443 424.5,399.5C 423.127,399.343 421.793,399.51 420.5,400C 421.649,401.604 421.649,403.27 420.5,405C 414.211,414.43 408.211,424.097 402.5,434C 403.167,434.667 403.833,435.333 404.5,436C 400.327,439.444 397.994,443.944 397.5,449.5C 394.1,447.661 392.6,448.328 393,451.5C 390.558,454.048 388.892,457.048 388,460.5C 387.667,460.167 387.333,459.833 387,459.5C 386.627,461.698 386.127,463.865 385.5,466C 385.645,466.772 385.978,467.439 386.5,468C 383.705,469.774 381.872,472.274 381,475.5C 380.658,473.381 379.825,473.047 378.5,474.5C 377.821,472.186 376.488,471.853 374.5,473.5C 373.692,475.423 373.192,477.423 373,479.5C 372.333,476.167 372.333,472.833 373,469.5C 374.692,469.324 376.192,468.824 377.5,468C 375.996,466.663 374.996,464.996 374.5,463C 372.527,462.505 370.527,462.338 368.5,462.5C 368.5,457.833 368.5,453.167 368.5,448.5C 372.555,448.176 376.555,448.509 380.5,449.5C 382.04,452.882 384.207,453.216 387,450.5C 387.49,449.207 387.657,447.873 387.5,446.5C 386.178,446.67 385.011,446.337 384,445.5C 383.501,440.845 383.334,436.179 383.5,431.5C 378.167,431.5 372.833,431.5 367.5,431.5C 367.807,425.907 367.473,420.407 366.5,415C 356.506,414.5 346.506,414.334 336.5,414.5C 336.666,409.821 336.499,405.155 336,400.5C 330.333,399.167 324.667,399.167 319,400.5C 318.501,405.155 318.334,409.821 318.5,414.5C 297.833,414.5 277.167,414.5 256.5,414.5C 256.666,409.821 256.499,405.155 256,400.5C 255.5,400 255,399.5 254.5,399C 228.502,398.5 202.502,398.333 176.5,398.5C 176.666,393.821 176.499,389.155 176,384.5C 171.263,383.531 166.43,383.197 161.5,383.5C 161.26,380.421 161.593,377.421 162.5,374.5C 161.054,372.382 160.387,370.049 160.5,367.5C 160.335,363.818 160.501,360.152 161,356.5C 166.161,330.84 174.328,306.174 185.5,282.5C 191.573,272.452 197.74,262.452 204,252.5C 217.578,236.492 232.078,221.492 247.5,207.5C 258.722,200.064 269.722,192.397 280.5,184.5C 282.801,183.675 285.135,183.008 287.5,182.5 Z"/></g>
<g><path style="opacity:1" fill="#feecd4" d="M 431.5,311.5 C 431.5,324.833 431.5,338.167 431.5,351.5C 428.833,351.5 426.167,351.5 423.5,351.5C 423.5,348.833 423.5,346.167 423.5,343.5C 420.833,343.5 418.167,343.5 415.5,343.5C 415.5,340.833 415.5,338.167 415.5,335.5C 410.167,335.5 404.833,335.5 399.5,335.5C 399.5,330.167 399.5,324.833 399.5,319.5C 388.833,319.5 378.167,319.5 367.5,319.5C 367.5,322.167 367.5,324.833 367.5,327.5C 362.167,327.5 356.833,327.5 351.5,327.5C 351.5,324.833 351.5,322.167 351.5,319.5C 343.5,319.5 335.5,319.5 327.5,319.5C 327.5,316.833 327.5,314.167 327.5,311.5C 324.833,311.5 322.167,311.5 319.5,311.5C 319.5,314.167 319.5,316.833 319.5,319.5C 311.5,319.5 303.5,319.5 295.5,319.5C 295.5,316.833 295.5,314.167 295.5,311.5C 287.5,311.5 279.5,311.5 271.5,311.5C 271.5,308.833 271.5,306.167 271.5,303.5C 255.5,303.5 239.5,303.5 223.5,303.5C 223.5,293.167 223.5,282.833 223.5,272.5C 239.092,271.35 254.759,271.183 270.5,272C 271.471,277.072 271.805,282.238 271.5,287.5C 292.503,287.333 313.503,287.5 334.5,288C 335.471,293.072 335.805,298.238 335.5,303.5C 367.168,303.333 398.835,303.5 430.5,304C 431.435,306.381 431.768,308.881 431.5,311.5 Z"/></g>
<g><path style="opacity:1" fill="#d2dddf" d="M 577.5,276.5 C 594.186,277.229 609.519,282.063 623.5,291C 558.841,328.661 494.508,366.828 430.5,405.5C 429.475,405.103 429.308,404.437 430,403.5C 442.333,381.5 454.667,359.5 467,337.5C 492.583,296.955 529.416,276.622 577.5,276.5 Z"/></g>
<g><path style="opacity:1" fill="#fafbf6" d="M 654.5,345.5 C 651.961,364.293 646.461,382.293 638,399.5C 637.831,406.856 637.331,414.189 636.5,421.5C 616.329,410.581 595.996,399.914 575.5,389.5C 572.539,388.117 569.706,386.45 567,384.5C 562.651,368.766 558.151,353.1 553.5,337.5C 562.843,331.033 572.843,325.533 583.5,321C 592.795,319.071 600.629,321.571 607,328.5C 609.763,332.41 612.263,336.41 614.5,340.5C 627.488,334.948 640.821,330.615 654.5,327.5C 654.5,333.5 654.5,339.5 654.5,345.5 Z"/></g>
<g><path style="opacity:0.999" fill="#232f34" d="M 777.5,263.5 C 800.156,281.266 809.656,304.6 806,333.5C 804.211,347.784 803.045,362.118 802.5,376.5C 802.5,380.5 802.5,384.5 802.5,388.5C 801.192,392.019 801.192,395.685 802.5,399.5C 804.684,394.454 807.351,389.787 810.5,385.5C 810.273,387.933 811.273,389.599 813.5,390.5C 784.343,438.92 754.343,486.254 723.5,532.5C 723.265,533.097 722.765,533.43 722,533.5C 720.826,532.456 719.659,531.456 718.5,530.5C 744.811,490.562 770.644,450.229 796,409.5C 796.667,393.5 796.667,377.5 796,361.5C 793.021,359.933 790.188,358.266 787.5,356.5C 790.384,355.584 793.218,355.918 796,357.5C 796.667,356.833 796.667,356.167 796,355.5C 794.98,354.109 794.147,352.609 793.5,351C 790.518,350.502 787.518,350.335 784.5,350.5C 784.084,345.507 783.751,340.507 783.5,335.5C 784.822,335.67 785.989,335.337 787,334.5C 787.626,331.137 787.959,327.804 788,324.5C 787.444,326.595 786.944,326.762 786.5,325C 786.862,323.775 787.362,322.609 788,321.5C 789.63,325.163 791.464,328.829 793.5,332.5C 794.107,332.376 794.44,332.043 794.5,331.5C 795.167,332.167 795.833,332.833 796.5,333.5C 796.841,336.516 798.007,339.182 800,341.5C 806.357,312.866 798.857,288.866 777.5,269.5C 778.376,269.631 779.043,269.298 779.5,268.5C 778.408,267.169 777.074,266.336 775.5,266C 776.381,265.292 777.047,264.458 777.5,263.5 Z"/></g>
<g><path style="opacity:1" fill="#1d292f" d="M 561.5,271.5 C 568.833,271.5 576.167,271.5 583.5,271.5C 607.366,274.517 627.533,284.85 644,302.5C 648.533,309.023 653.033,315.523 657.5,322C 674.919,325.284 692.253,328.95 709.5,333C 692.538,338.323 675.538,343.49 658.5,348.5C 657.908,351.127 657.575,353.794 657.5,356.5C 656.79,354.107 656.123,351.607 655.5,349C 655.833,348.667 656.167,348.333 656.5,348C 655.619,347.292 654.953,346.458 654.5,345.5C 654.5,339.5 654.5,333.5 654.5,327.5C 640.821,330.615 627.488,334.948 614.5,340.5C 612.263,336.41 609.763,332.41 607,328.5C 600.629,321.571 592.795,319.071 583.5,321C 572.843,325.533 562.843,331.033 553.5,337.5C 558.151,353.1 562.651,368.766 567,384.5C 569.706,386.45 572.539,388.117 575.5,389.5C 575.082,390.222 574.416,390.722 573.5,391C 574.712,392.107 574.379,392.607 572.5,392.5C 571.153,391.972 569.819,391.805 568.5,392C 570.058,394.052 571.392,396.219 572.5,398.5C 582.482,417.132 592.982,435.465 604,453.5C 614.014,463.347 623.848,473.347 633.5,483.5C 634.298,483.043 634.631,482.376 634.5,481.5C 635.75,481.577 636.583,482.244 637,483.5C 638.617,482.464 638.784,481.297 637.5,480C 638.264,477.931 638.764,475.764 639,473.5C 639.483,474.448 639.649,475.448 639.5,476.5C 639.226,501.17 634.559,524.836 625.5,547.5C 625.649,546.448 625.483,545.448 625,544.5C 624.03,544.376 623.197,544.376 622.5,544.5C 627.951,528.248 631.617,511.582 633.5,494.5C 633.167,492.833 632.833,491.167 632.5,489.5C 609.726,466.388 586.393,444.055 562.5,422.5C 558.854,418.188 554.854,414.188 550.5,410.5C 549.499,420.505 548.499,430.505 547.5,440.5C 546.732,439.737 546.232,438.737 546,437.5C 545.798,439.256 545.298,440.922 544.5,442.5C 544.167,442.333 543.833,442.167 543.5,442C 544.536,440.224 544.536,438.391 543.5,436.5C 543.706,429.436 544.373,422.436 545.5,415.5C 545.938,415.565 546.272,415.399 546.5,415C 541.56,413.635 541.227,412.468 545.5,411.5C 544.873,410.583 544.539,409.583 544.5,408.5C 545.66,407.735 546.66,406.735 547.5,405.5C 546.511,401.337 544.678,397.67 542,394.5C 502.487,400.788 462.987,407.121 423.5,413.5C 422.957,413.44 422.624,413.107 422.5,412.5C 423.806,411.088 424.64,409.421 425,407.5C 426.948,406.891 428.782,406.224 430.5,405.5C 494.508,366.828 558.841,328.661 623.5,291C 609.519,282.063 594.186,277.229 577.5,276.5C 580.977,275.677 584.644,275.177 588.5,275C 587.833,274.667 587.167,274.333 586.5,274C 577.773,274.141 569.44,273.308 561.5,271.5 Z"/></g>
<g><path style="opacity:1" fill="#cbd7db" d="M 626.5,293.5 C 627.239,293.369 627.906,293.536 628.5,294C 633.681,298.881 638.515,304.047 643,309.5C 644.934,312.034 646.268,314.701 647,317.5C 636.245,311.872 625.411,306.372 614.5,301C 618.429,298.212 622.429,295.712 626.5,293.5 Z"/></g>
<g><path style="opacity:1" fill="#1a262b" d="M 586.5,329.5 C 599.867,328.69 605.034,334.69 602,347.5C 594.101,355.838 586.767,355.505 580,346.5C 578.682,343.594 578.348,340.594 579,337.5C 581.028,334.308 583.528,331.641 586.5,329.5 Z"/></g>
<g><path style="opacity:1" fill="#d4dade" d="M 588.5,333.5 C 592.5,332.833 594.167,334.5 593.5,338.5C 591.833,338.5 590.167,338.5 588.5,338.5C 588.5,336.833 588.5,335.167 588.5,333.5 Z"/></g>
<g><path style="opacity:1" fill="#233033" d="M 654.5,345.5 C 654.953,346.458 655.619,347.292 656.5,348C 656.167,348.333 655.833,348.667 655.5,349C 656.123,351.607 656.79,354.107 657.5,356.5C 654.575,372.108 649.742,387.108 643,401.5C 642.226,426.679 641.059,451.679 639.5,476.5C 639.649,475.448 639.483,474.448 639,473.5C 638.764,475.764 638.264,477.931 637.5,480C 638.784,481.297 638.617,482.464 637,483.5C 636.583,482.244 635.75,481.577 634.5,481.5C 635.187,474.187 635.521,466.854 635.5,459.5C 636.454,448.849 636.954,438.182 637,427.5C 615.327,415.918 593.827,404.251 572.5,392.5C 574.379,392.607 574.712,392.107 573.5,391C 574.416,390.722 575.082,390.222 575.5,389.5C 595.996,399.914 616.329,410.581 636.5,421.5C 637.331,414.189 637.831,406.856 638,399.5C 646.461,382.293 651.961,364.293 654.5,345.5 Z"/></g>
<g><path style="opacity:1" fill="#fef3dd" d="M 160.5,367.5 C 160.387,370.049 161.054,372.382 162.5,374.5C 161.593,377.421 161.26,380.421 161.5,383.5C 166.43,383.197 171.263,383.531 176,384.5C 176.499,389.155 176.666,393.821 176.5,398.5C 202.502,398.333 228.502,398.5 254.5,399C 255,399.5 255.5,400 256,400.5C 256.499,405.155 256.666,409.821 256.5,414.5C 277.167,414.5 297.833,414.5 318.5,414.5C 318.334,409.821 318.501,405.155 319,400.5C 324.667,399.167 330.333,399.167 336,400.5C 336.499,405.155 336.666,409.821 336.5,414.5C 346.506,414.334 356.506,414.5 366.5,415C 367.473,420.407 367.807,425.907 367.5,431.5C 372.833,431.5 378.167,431.5 383.5,431.5C 383.334,436.179 383.501,440.845 384,445.5C 385.011,446.337 386.178,446.67 387.5,446.5C 387.657,447.873 387.49,449.207 387,450.5C 384.207,453.216 382.04,452.882 380.5,449.5C 376.555,448.509 372.555,448.176 368.5,448.5C 368.5,453.167 368.5,457.833 368.5,462.5C 370.527,462.338 372.527,462.505 374.5,463C 374.996,464.996 375.996,466.663 377.5,468C 376.192,468.824 374.692,469.324 373,469.5C 372.333,472.833 372.333,476.167 373,479.5C 373.192,477.423 373.692,475.423 374.5,473.5C 376.488,471.853 377.821,472.186 378.5,474.5C 379.218,476.137 379.384,477.803 379,479.5C 376.957,481.208 375.29,483.208 374,485.5C 371.727,490.756 369.06,495.756 366,500.5C 364.921,502.394 363.587,502.727 362,501.5C 360.749,504.702 359.915,507.702 359.5,510.5C 358.478,511.354 357.645,512.354 357,513.5C 356.395,511.519 355.395,511.185 354,512.5C 352.908,509.956 352.241,507.289 352,504.5C 350.798,506.677 350.298,509.011 350.5,511.5C 345.5,511.5 340.5,511.5 335.5,511.5C 335.5,506.167 335.5,500.833 335.5,495.5C 330.167,495.5 324.833,495.5 319.5,495.5C 319.5,490.167 319.5,484.833 319.5,479.5C 303.5,479.5 287.5,479.5 271.5,479.5C 271.5,474.167 271.5,468.833 271.5,463.5C 244.833,463.5 218.167,463.5 191.5,463.5C 191.5,458.167 191.5,452.833 191.5,447.5C 185.5,447.5 179.5,447.5 173.5,447.5C 173.927,450.788 173.26,453.788 171.5,456.5C 173.279,458.193 173.779,460.193 173,462.5C 171.989,463.337 170.822,463.67 169.5,463.5C 161.519,440.33 157.852,416.33 158.5,391.5C 158.332,383.278 158.999,375.278 160.5,367.5 Z"/></g>
<g><path style="opacity:1" fill="#d2dedf" d="M 544.5,408.5 C 510.703,439.795 477.036,471.295 443.5,503C 407.195,524.152 371.528,546.319 336.5,569.5C 336.167,569.333 335.833,569.167 335.5,569C 365.49,517.518 394.823,465.684 423.5,413.5C 462.987,407.121 502.487,400.788 542,394.5C 544.678,397.67 546.511,401.337 547.5,405.5C 546.66,406.735 545.66,407.735 544.5,408.5 Z"/></g>
<g><path style="opacity:1" fill="#f8faf5" d="M 572.5,392.5 C 593.827,404.251 615.327,415.918 637,427.5C 636.954,438.182 636.454,448.849 635.5,459.5C 622.756,446.255 609.756,433.089 596.5,420C 588.558,412.546 580.558,405.38 572.5,398.5C 571.392,396.219 570.058,394.052 568.5,392C 569.819,391.805 571.153,391.972 572.5,392.5 Z"/></g>
<g><path style="opacity:1" fill="#b3c4c7" d="M 559.5,391.5 C 560.822,391.33 561.989,391.663 563,392.5C 568.601,403.092 574.601,413.426 581,423.5C 584,429.159 586.666,434.826 589,440.5C 576.696,429.196 564.696,417.53 553,405.5C 551.521,401.583 550.354,397.583 549.5,393.5C 553.011,393.101 556.344,392.434 559.5,391.5 Z"/></g>
<g><path style="opacity:1" fill="#f1ebdb" d="M 450.5,355.5 C 433.626,387.351 415.959,418.684 397.5,449.5C 397.994,443.944 400.327,439.444 404.5,436C 403.833,435.333 403.167,434.667 402.5,434C 408.211,424.097 414.211,414.43 420.5,405C 421.649,403.27 421.649,401.604 420.5,400C 421.793,399.51 423.127,399.343 424.5,399.5C 424.848,395.443 425.514,391.443 426.5,387.5C 428.942,387.881 429.609,387.214 428.5,385.5C 430.167,384.167 431.833,382.833 433.5,381.5C 436.816,374.568 439.983,367.568 443,360.5C 445.122,358.244 447.622,356.577 450.5,355.5 Z"/></g>
<g><path style="opacity:1" fill="#fcfcf6" d="M 562.5,422.5 C 586.393,444.055 609.726,466.388 632.5,489.5C 632.833,491.167 633.167,492.833 633.5,494.5C 631.617,511.582 627.951,528.248 622.5,544.5C 604.972,591.518 574.638,627.685 531.5,653C 508.631,664.966 484.298,670.133 458.5,668.5C 453.588,666.723 448.588,664.89 443.5,663C 427.595,654.548 411.595,646.381 395.5,638.5C 424.612,621.894 453.612,605.061 482.5,588C 489.296,583.371 495.296,577.871 500.5,571.5C 500.833,571.5 501.167,571.5 501.5,571.5C 504.55,570.185 505.217,571.185 503.5,574.5C 502.675,575.386 501.675,575.719 500.5,575.5C 500.305,579.192 498.305,581.026 494.5,581C 493.283,582.648 492.45,584.481 492,586.5C 490.167,587.667 488.333,588.833 486.5,590C 489.831,592.152 492.998,591.985 496,589.5C 496.333,589.833 496.667,590.167 497,590.5C 499.251,588.623 501.751,587.123 504.5,586C 506.743,577.85 511.743,574.683 519.5,576.5C 520.449,574.263 521.116,571.929 521.5,569.5C 526.597,568.757 528.93,565.757 528.5,560.5C 530.833,560.5 533.167,560.5 535.5,560.5C 536.449,558.263 537.116,555.929 537.5,553.5C 542.597,552.757 544.93,549.757 544.5,544.5C 547.119,544.768 549.619,544.435 552,543.5C 553.465,531.59 553.298,526.257 551.5,527.5C 550.5,527.5 549.5,527.5 548.5,527.5C 548.813,530.247 548.48,532.914 547.5,535.5C 545.839,527.593 545.172,519.593 545.5,511.5C 546.833,511.5 548.167,511.5 549.5,511.5C 549.334,506.489 549.501,501.489 550,496.5C 552.041,495.577 554.208,495.244 556.5,495.5C 556.173,500.544 556.506,505.544 557.5,510.5C 558.398,498.254 558.732,486.088 558.5,474C 557.227,470.709 556.227,467.376 555.5,464C 555.906,458.898 555.906,453.398 555.5,447.5C 559.24,448.259 560.907,446.759 560.5,443C 560.054,439.825 559.554,436.658 559,433.5C 557.933,432.809 556.766,432.309 555.5,432C 555.519,429.031 555.686,425.865 556,422.5C 557.576,423.32 559.743,423.32 562.5,422.5 Z"/></g>
<g><path style="opacity:1" fill="#1f2d31" d="M 868.5,480.5 C 867.212,476.806 866.045,477.14 865,481.5C 862.891,480.965 862.391,479.965 863.5,478.5C 864.885,477.449 865.885,476.116 866.5,474.5C 868.5,473.667 870.5,472.833 872.5,472C 872.167,471 871.833,470 871.5,469C 874.206,469.248 876.54,468.081 878.5,465.5C 879.086,465.709 879.586,466.043 880,466.5C 880.875,463.117 881.875,459.784 883,456.5C 884.008,456.018 885.175,455.852 886.5,456C 887.191,454.933 887.691,453.766 888,452.5C 888.333,453.167 888.667,453.833 889,454.5C 889.825,452.299 889.325,450.466 887.5,449C 888,448.5 888.5,448 889,447.5C 890.388,448.554 891.888,448.72 893.5,448C 894.971,445.757 895.971,443.257 896.5,440.5C 897.086,440.709 897.586,441.043 898,441.5C 897.468,438.886 897.135,436.22 897,433.5C 898.803,433.906 900.636,433.406 902.5,432C 903.059,431.275 903.392,430.442 903.5,429.5C 901.529,427.192 899.529,424.858 897.5,422.5C 896.709,425.317 895.376,427.817 893.5,430C 889.853,430.774 886.186,431.441 882.5,432C 878.956,436.577 874.623,439.244 869.5,440C 870.167,440.333 870.833,440.667 871.5,441C 869.899,441.273 868.399,441.773 867,442.5C 866.383,443.449 866.549,444.282 867.5,445C 865.699,445.317 865.366,445.984 866.5,447C 862.65,446.993 858.65,447.16 854.5,447.5C 872.929,434.775 891.596,422.275 910.5,410C 887.303,407.604 864.636,409.937 842.5,417C 837.113,419.354 832.113,422.188 827.5,425.5C 817.792,432.709 809.625,441.375 803,451.5C 796.202,465.409 789.702,479.409 783.5,493.5C 782.769,493.942 781.769,494.109 780.5,494C 778.485,495.555 778.152,497.389 779.5,499.5C 780.192,498.975 780.692,498.308 781,497.5C 781.278,498.416 781.778,499.082 782.5,499.5C 761.87,513.153 741.203,526.82 720.5,540.5C 720.461,539.417 720.127,538.417 719.5,537.5C 721.495,535.773 723.829,534.273 726.5,533C 725.944,532.617 725.611,532.117 725.5,531.5C 741.822,520.03 758.322,508.696 775,497.5C 782.41,481.68 790.077,466.013 798,450.5C 813.729,424.21 836.896,409.376 867.5,406C 885.49,404.423 903.49,404.257 921.5,405.5C 911.415,422.002 901.581,438.669 892,455.5C 885.709,465.29 877.876,473.624 868.5,480.5 Z"/></g>
<g><path style="opacity:0.227" fill="#d2dee0" d="M 690.5,587.5 C 687.209,588.801 683.709,589.801 680,590.5C 678.743,590.15 678.409,589.483 679,588.5C 690.427,575.744 701.093,562.411 711,548.5C 713.747,545.246 716.914,542.58 720.5,540.5C 741.203,526.82 761.87,513.153 782.5,499.5C 805.807,501.335 828.474,498.502 850.5,491C 857.02,488.245 863.02,484.745 868.5,480.5C 877.876,473.624 885.709,465.29 892,455.5C 901.581,438.669 911.415,422.002 921.5,405.5C 903.49,404.257 885.49,404.423 867.5,406C 836.896,409.376 813.729,424.21 798,450.5C 790.077,466.013 782.41,481.68 775,497.5C 758.322,508.696 741.822,520.03 725.5,531.5C 724.833,531.833 724.167,532.167 723.5,532.5C 754.343,486.254 784.343,438.92 813.5,390.5C 815.489,387.194 817.489,383.861 819.5,380.5C 837.982,371.851 853.482,359.518 866,343.5C 877.132,324.972 882.298,304.972 881.5,283.5C 861.753,291.087 845.253,303.087 832,319.5C 821.328,335.489 815.661,353.155 815,372.5C 813.95,377.057 812.45,381.391 810.5,385.5C 807.351,389.787 804.684,394.454 802.5,399.5C 801.192,395.685 801.192,392.019 802.5,388.5C 803.511,391.018 804.844,391.018 806.5,388.5C 807.255,385.23 808.589,382.23 810.5,379.5C 812.516,366.297 815.016,353.297 818,340.5C 821.509,330.849 826.343,321.849 832.5,313.5C 838.843,307.158 845.509,301.158 852.5,295.5C 860.709,290.563 869.042,285.897 877.5,281.5C 880.086,280.52 882.753,280.187 885.5,280.5C 884.727,295.487 882.56,310.154 879,324.5C 873.395,338.157 865.228,350.157 854.5,360.5C 845.337,367.583 835.67,373.916 825.5,379.5C 813.525,394.317 803.359,410.317 795,427.5C 785.71,441.47 776.377,455.47 767,469.5C 764.279,474.053 761.779,478.719 759.5,483.5C 753.969,489.711 749.636,496.711 746.5,504.5C 743.421,507.571 740.754,510.904 738.5,514.5C 738.667,515.167 738.833,515.833 739,516.5C 740.945,515.137 743.112,514.303 745.5,514C 753.524,507.991 761.857,502.491 770.5,497.5C 772.85,495.317 775.017,492.984 777,490.5C 783.327,471.299 792.327,453.299 804,436.5C 820.65,417.974 841.15,406.808 865.5,403C 884.665,402.857 903.665,402.19 922.5,401C 923.783,403.795 923.783,406.628 922.5,409.5C 913.172,424.148 904.339,439.148 896,454.5C 879.525,479.316 856.691,494.482 827.5,500C 812.284,501.94 796.951,502.94 781.5,503C 761.86,516.491 741.86,529.491 721.5,542C 707.553,555.77 695.553,570.937 685.5,587.5C 687.167,587.5 688.833,587.5 690.5,587.5 Z M 830.5,459.5 C 817.642,467.761 804.642,475.761 791.5,483.5C 797.991,464.079 808.658,447.079 823.5,432.5C 825.624,431.542 827.624,430.375 829.5,429C 830.823,428.184 831.489,427.017 831.5,425.5C 841.798,421.348 852.132,417.514 862.5,414C 873.505,412.888 884.505,411.722 895.5,410.5C 897.712,410.412 899.712,410.912 901.5,412C 877.818,427.839 854.151,443.672 830.5,459.5 Z"/></g>
<g><path style="opacity:0.459" fill="#a4b3b5" d="M 854.5,447.5 C 844.851,453.473 835.184,459.473 825.5,465.5C 827.167,463.5 828.833,461.5 830.5,459.5C 854.151,443.672 877.818,427.839 901.5,412C 899.712,410.912 897.712,410.412 895.5,410.5C 884.505,411.722 873.505,412.888 862.5,414C 852.132,417.514 841.798,421.348 831.5,425.5C 830.167,425.5 828.833,425.5 827.5,425.5C 832.113,422.188 837.113,419.354 842.5,417C 864.636,409.937 887.303,407.604 910.5,410C 891.596,422.275 872.929,434.775 854.5,447.5 Z"/></g>
<g><path style="opacity:1" fill="#1d2930" d="M 813.5,390.5 C 811.273,389.599 810.273,387.933 810.5,385.5C 812.45,381.391 813.95,377.057 815,372.5C 815.661,353.155 821.328,335.489 832,319.5C 845.253,303.087 861.753,291.087 881.5,283.5C 882.298,304.972 877.132,324.972 866,343.5C 853.482,359.518 837.982,371.851 819.5,380.5C 817.489,383.861 815.489,387.194 813.5,390.5 Z"/></g>
<g><path style="opacity:1" fill="#d2dedf" d="M 545.5,415.5 C 544.373,422.436 543.706,429.436 543.5,436.5C 540.791,451.943 538.791,467.61 537.5,483.5C 536.279,496.487 535.112,509.487 534,522.5C 533.626,523.416 533.126,524.25 532.5,525C 469.604,553.977 406.604,582.977 343.5,612C 335.176,614.774 327.009,617.941 319,621.5C 318.235,621.43 317.735,621.097 317.5,620.5C 351.655,591.244 385.655,561.744 419.5,532C 461.618,493.385 503.618,454.552 545.5,415.5 Z"/></g>
<g><path style="opacity:0.492" fill="#d1dcde" d="M 802.5,376.5 C 803.045,362.118 804.211,347.784 806,333.5C 809.656,304.6 800.156,281.266 777.5,263.5C 764.585,254.573 750.751,247.239 736,241.5C 737.172,260.882 739.172,280.216 742,299.5C 748.152,325.806 763.319,344.806 787.5,356.5C 790.188,358.266 793.021,359.933 796,361.5C 796.667,377.5 796.667,393.5 796,409.5C 770.644,450.229 744.811,490.562 718.5,530.5C 713.601,536.617 708.934,542.951 704.5,549.5C 703.507,541.35 703.174,533.017 703.5,524.5C 708.75,519.075 713.917,513.408 719,507.5C 734.778,486.385 737.445,463.718 727,439.5C 721.555,431.055 715.721,422.888 709.5,415C 708.668,414.312 708.002,414.479 707.5,415.5C 704.175,422.821 700.341,429.821 696,436.5C 680.415,462.661 680.748,488.661 697,514.5C 697.667,529.167 697.667,543.833 697,558.5C 687.62,569.708 678.454,581.041 669.5,592.5C 651.089,610.411 632.755,628.577 614.5,647C 597.859,662.305 581.193,677.638 564.5,693C 549.217,687.214 537.717,691.714 530,706.5C 529.266,710.965 529.766,715.299 531.5,719.5C 530.561,723.139 529.228,723.306 527.5,720C 522.37,717.412 517.037,716.912 511.5,718.5C 490.774,705.476 470.774,691.476 451.5,676.5C 453.199,676.34 454.866,676.506 456.5,677C 474.318,689.413 491.985,702.08 509.5,715C 514.5,715.333 519.5,715.667 524.5,716C 525,716.5 525.5,717 526,717.5C 525.515,702.65 532.349,692.816 546.5,688C 551.533,687.272 556.533,687.439 561.5,688.5C 564.937,686.906 568.27,685.073 571.5,683C 576.211,678.737 580.544,674.071 584.5,669C 588.651,667.572 591.651,664.905 593.5,661C 597.668,657.993 601.668,654.827 605.5,651.5C 621.723,633.949 639.057,617.282 657.5,601.5C 660.776,596.721 664.609,592.388 669,588.5C 674.942,579.396 681.775,571.063 689.5,563.5C 691.092,561.316 692.426,558.982 693.5,556.5C 694.833,541.833 694.833,527.167 693.5,512.5C 688.419,504.294 684.585,495.627 682,486.5C 680.905,476.006 681.571,465.672 684,455.5C 690.316,441.041 697.483,427.041 705.5,413.5C 706.333,413.167 707.167,412.833 708,412.5C 710.118,413.476 712.285,414.31 714.5,415C 718.776,421.998 723.276,428.831 728,435.5C 733.269,445.029 735.769,455.362 735.5,466.5C 734.846,474.244 733.679,481.911 732,489.5C 726.014,502.005 717.847,513.005 707.5,522.5C 705.052,528.246 704.052,534.246 704.5,540.5C 706.993,540.024 708.993,538.69 710.5,536.5C 732.837,502.987 755.004,469.32 777,435.5C 782.766,425.939 788.266,416.273 793.5,406.5C 794.833,391.833 794.833,377.167 793.5,362.5C 771.333,353.163 754.833,337.83 744,316.5C 740.864,307.683 738.531,298.683 737,289.5C 735.472,278.577 734.139,267.577 733,256.5C 732.333,251.167 732.333,245.833 733,240.5C 734,239.833 735,239.167 736,238.5C 752.689,244.331 768.189,252.331 782.5,262.5C 799.69,277.382 808.69,296.215 809.5,319C 809.578,324.964 809.411,331.131 809,337.5C 807.357,344.524 806.024,351.524 805,358.5C 804.667,364.167 804.333,369.833 804,375.5C 803.617,376.056 803.117,376.389 802.5,376.5 Z M 796.5,333.5 C 796.662,331.473 796.495,329.473 796,327.5C 784.81,303.657 770.81,281.657 754,261.5C 753.517,260.552 753.351,259.552 753.5,258.5C 775.734,267.232 790.567,282.899 798,305.5C 798.167,310.167 798.333,314.833 798.5,319.5C 798.493,324.551 797.827,329.217 796.5,333.5 Z"/></g>
<g><path style="opacity:0.184" fill="#cfdade" d="M 777.5,269.5 C 798.857,288.866 806.357,312.866 800,341.5C 798.007,339.182 796.841,336.516 796.5,333.5C 795.833,332.833 795.167,332.167 794.5,331.5C 790.205,321.577 785.372,311.91 780,302.5C 769.118,285.233 757.618,268.4 745.5,252C 757.103,255.971 767.77,261.804 777.5,269.5 Z M 796.5,333.5 C 797.827,329.217 798.493,324.551 798.5,319.5C 798.333,314.833 798.167,310.167 798,305.5C 790.567,282.899 775.734,267.232 753.5,258.5C 753.351,259.552 753.517,260.552 754,261.5C 770.81,281.657 784.81,303.657 796,327.5C 796.495,329.473 796.662,331.473 796.5,333.5 Z"/></g>
<g><path style="opacity:0.999" fill="#1d2930" d="M 777.5,263.5 C 777.047,264.458 776.381,265.292 775.5,266C 777.074,266.336 778.408,267.169 779.5,268.5C 779.043,269.298 778.376,269.631 777.5,269.5C 767.77,261.804 757.103,255.971 745.5,252C 757.618,268.4 769.118,285.233 780,302.5C 785.372,311.91 790.205,321.577 794.5,331.5C 794.44,332.043 794.107,332.376 793.5,332.5C 791.464,328.829 789.63,325.163 788,321.5C 787.362,322.609 786.862,323.775 786.5,325C 786.944,326.762 787.444,326.595 788,324.5C 787.959,327.804 787.626,331.137 787,334.5C 785.989,335.337 784.822,335.67 783.5,335.5C 783.751,340.507 784.084,345.507 784.5,350.5C 787.518,350.335 790.518,350.502 793.5,351C 794.147,352.609 794.98,354.109 796,355.5C 796.667,356.167 796.667,356.833 796,357.5C 793.218,355.918 790.384,355.584 787.5,356.5C 763.319,344.806 748.152,325.806 742,299.5C 739.172,280.216 737.172,260.882 736,241.5C 750.751,247.239 764.585,254.573 777.5,263.5 Z"/></g>
<g><path style="opacity:1" fill="#1c2930" d="M 868.5,480.5 C 863.02,484.745 857.02,488.245 850.5,491C 828.474,498.502 805.807,501.335 782.5,499.5C 781.778,499.082 781.278,498.416 781,497.5C 780.692,498.308 780.192,498.975 779.5,499.5C 778.152,497.389 778.485,495.555 780.5,494C 781.769,494.109 782.769,493.942 783.5,493.5C 797.228,483.774 811.228,474.441 825.5,465.5C 835.184,459.473 844.851,453.473 854.5,447.5C 858.65,447.16 862.65,446.993 866.5,447C 865.366,445.984 865.699,445.317 867.5,445C 866.549,444.282 866.383,443.449 867,442.5C 868.399,441.773 869.899,441.273 871.5,441C 870.833,440.667 870.167,440.333 869.5,440C 874.623,439.244 878.956,436.577 882.5,432C 886.186,431.441 889.853,430.774 893.5,430C 895.376,427.817 896.709,425.317 897.5,422.5C 899.529,424.858 901.529,427.192 903.5,429.5C 903.392,430.442 903.059,431.275 902.5,432C 900.636,433.406 898.803,433.906 897,433.5C 897.135,436.22 897.468,438.886 898,441.5C 897.586,441.043 897.086,440.709 896.5,440.5C 895.971,443.257 894.971,445.757 893.5,448C 891.888,448.72 890.388,448.554 889,447.5C 888.5,448 888,448.5 887.5,449C 889.325,450.466 889.825,452.299 889,454.5C 888.667,453.833 888.333,453.167 888,452.5C 887.691,453.766 887.191,454.933 886.5,456C 885.175,455.852 884.008,456.018 883,456.5C 881.875,459.784 880.875,463.117 880,466.5C 879.586,466.043 879.086,465.709 878.5,465.5C 876.54,468.081 874.206,469.248 871.5,469C 871.833,470 872.167,471 872.5,472C 870.5,472.833 868.5,473.667 866.5,474.5C 865.885,476.116 864.885,477.449 863.5,478.5C 862.391,479.965 862.891,480.965 865,481.5C 866.045,477.14 867.212,476.806 868.5,480.5 Z"/></g>
<g><path style="opacity:1" fill="#b0bdbd" d="M 572.5,398.5 C 580.558,405.38 588.558,412.546 596.5,420C 609.756,433.089 622.756,446.255 635.5,459.5C 635.521,466.854 635.187,474.187 634.5,481.5C 634.631,482.376 634.298,483.043 633.5,483.5C 623.848,473.347 614.014,463.347 604,453.5C 592.982,435.465 582.482,417.132 572.5,398.5 Z"/></g>
<g><path style="opacity:1" fill="#fdf6e3" d="M 378.5,474.5 C 379.825,473.047 380.658,473.381 381,475.5C 381.872,472.274 383.705,469.774 386.5,468C 385.978,467.439 385.645,466.772 385.5,466C 386.127,463.865 386.627,461.698 387,459.5C 387.333,459.833 387.667,460.167 388,460.5C 388.892,457.048 390.558,454.048 393,451.5C 392.6,448.328 394.1,447.661 397.5,449.5C 381.416,478.67 365.083,507.67 348.5,536.5C 301.162,536.833 253.829,536.5 206.5,535.5C 188.873,514.247 176.54,490.247 169.5,463.5C 170.822,463.67 171.989,463.337 173,462.5C 173.779,460.193 173.279,458.193 171.5,456.5C 173.26,453.788 173.927,450.788 173.5,447.5C 179.5,447.5 185.5,447.5 191.5,447.5C 191.5,452.833 191.5,458.167 191.5,463.5C 218.167,463.5 244.833,463.5 271.5,463.5C 271.5,468.833 271.5,474.167 271.5,479.5C 287.5,479.5 303.5,479.5 319.5,479.5C 319.5,484.833 319.5,490.167 319.5,495.5C 324.833,495.5 330.167,495.5 335.5,495.5C 335.5,500.833 335.5,506.167 335.5,511.5C 340.5,511.5 345.5,511.5 350.5,511.5C 350.298,509.011 350.798,506.677 352,504.5C 352.241,507.289 352.908,509.956 354,512.5C 355.395,511.185 356.395,511.519 357,513.5C 357.645,512.354 358.478,511.354 359.5,510.5C 359.915,507.702 360.749,504.702 362,501.5C 363.587,502.727 364.921,502.394 366,500.5C 369.06,495.756 371.727,490.756 374,485.5C 375.29,483.208 376.957,481.208 379,479.5C 379.384,477.803 379.218,476.137 378.5,474.5 Z"/></g>
<g><path style="opacity:1" fill="#f8fafa" d="M 562.5,422.5 C 559.743,423.32 557.576,423.32 556,422.5C 555.686,425.865 555.519,429.031 555.5,432C 556.766,432.309 557.933,432.809 559,433.5C 559.554,436.658 560.054,439.825 560.5,443C 560.907,446.759 559.24,448.259 555.5,447.5C 555.906,453.398 555.906,458.898 555.5,464C 556.227,467.376 557.227,470.709 558.5,474C 558.732,486.088 558.398,498.254 557.5,510.5C 556.506,505.544 556.173,500.544 556.5,495.5C 554.208,495.244 552.041,495.577 550,496.5C 549.501,501.489 549.334,506.489 549.5,511.5C 548.167,511.5 546.833,511.5 545.5,511.5C 545.172,519.593 545.839,527.593 547.5,535.5C 548.48,532.914 548.813,530.247 548.5,527.5C 549.5,527.5 550.5,527.5 551.5,527.5C 553.298,526.257 553.465,531.59 552,543.5C 549.619,544.435 547.119,544.768 544.5,544.5C 544.93,549.757 542.597,552.757 537.5,553.5C 537.116,555.929 536.449,558.263 535.5,560.5C 533.167,560.5 530.833,560.5 528.5,560.5C 528.93,565.757 526.597,568.757 521.5,569.5C 521.116,571.929 520.449,574.263 519.5,576.5C 511.743,574.683 506.743,577.85 504.5,586C 501.751,587.123 499.251,588.623 497,590.5C 496.667,590.167 496.333,589.833 496,589.5C 492.998,591.985 489.831,592.152 486.5,590C 488.333,588.833 490.167,587.667 492,586.5C 492.45,584.481 493.283,582.648 494.5,581C 498.305,581.026 500.305,579.192 500.5,575.5C 501.675,575.719 502.675,575.386 503.5,574.5C 505.217,571.185 504.55,570.185 501.5,571.5C 513.888,556.448 525.888,541.115 537.5,525.5C 540.186,509.289 541.853,492.956 542.5,476.5C 544.053,464.623 545.72,452.623 547.5,440.5C 548.499,430.505 549.499,420.505 550.5,410.5C 554.854,414.188 558.854,418.188 562.5,422.5 Z"/></g>
<g><path style="opacity:1" fill="#274343" d="M 543.5,436.5 C 544.536,438.391 544.536,440.224 543.5,442C 543.833,442.167 544.167,442.333 544.5,442.5C 545.298,440.922 545.798,439.256 546,437.5C 546.232,438.737 546.732,439.737 547.5,440.5C 545.72,452.623 544.053,464.623 542.5,476.5C 542.762,475.022 542.429,473.689 541.5,472.5C 540.9,476.54 539.567,480.207 537.5,483.5C 538.791,467.61 540.791,451.943 543.5,436.5 Z"/></g>
<g><path style="opacity:0.255" fill="#d5dbd7" d="M 295.5,175.5 C 295.67,176.822 295.337,177.989 294.5,179C 291.97,179.891 289.637,181.058 287.5,182.5C 285.135,183.008 282.801,183.675 280.5,184.5C 269.722,192.397 258.722,200.064 247.5,207.5C 232.078,221.492 217.578,236.492 204,252.5C 197.74,262.452 191.573,272.452 185.5,282.5C 174.328,306.174 166.161,330.84 161,356.5C 160.501,360.152 160.335,363.818 160.5,367.5C 158.999,375.278 158.332,383.278 158.5,391.5C 157.852,416.33 161.519,440.33 169.5,463.5C 176.54,490.247 188.873,514.247 206.5,535.5C 253.829,536.5 301.162,536.833 348.5,536.5C 347.081,537.451 345.415,537.784 343.5,537.5C 295.997,537.168 248.664,537.501 201.5,538.5C 201.5,539.833 201.5,541.167 201.5,542.5C 204.5,542.5 207.5,542.5 210.5,542.5C 212.167,544.167 213.833,545.833 215.5,547.5C 209.6,548.139 204.1,547.139 199,544.5C 198.667,540.167 198.333,535.833 198,531.5C 159.29,472.963 147.124,408.963 161.5,339.5C 169.535,304.766 184.535,273.433 206.5,245.5C 230.364,214.619 260.031,191.285 295.5,175.5 Z"/></g>
<g><path style="opacity:0.059" fill="#becbce" d="M 827.5,425.5 C 828.833,425.5 830.167,425.5 831.5,425.5C 831.489,427.017 830.823,428.184 829.5,429C 827.624,430.375 825.624,431.542 823.5,432.5C 808.658,447.079 797.991,464.079 791.5,483.5C 804.642,475.761 817.642,467.761 830.5,459.5C 828.833,461.5 827.167,463.5 825.5,465.5C 811.228,474.441 797.228,483.774 783.5,493.5C 789.702,479.409 796.202,465.409 803,451.5C 809.625,441.375 817.792,432.709 827.5,425.5 Z"/></g>
<g><path style="opacity:1" fill="#242d2e" d="M 561.5,271.5 C 569.44,273.308 577.773,274.141 586.5,274C 587.167,274.333 587.833,274.667 588.5,275C 584.644,275.177 580.977,275.677 577.5,276.5C 529.416,276.622 492.583,296.955 467,337.5C 454.667,359.5 442.333,381.5 430,403.5C 429.308,404.437 429.475,405.103 430.5,405.5C 428.782,406.224 426.948,406.891 425,407.5C 424.64,409.421 423.806,411.088 422.5,412.5C 422.624,413.107 422.957,413.44 423.5,413.5C 394.823,465.684 365.49,517.518 335.5,569C 335.833,569.167 336.167,569.333 336.5,569.5C 371.528,546.319 407.195,524.152 443.5,503C 477.036,471.295 510.703,439.795 544.5,408.5C 544.539,409.583 544.873,410.583 545.5,411.5C 541.227,412.468 541.56,413.635 546.5,415C 546.272,415.399 545.938,415.565 545.5,415.5C 503.618,454.552 461.618,493.385 419.5,532C 385.655,561.744 351.655,591.244 317.5,620.5C 316.292,621.234 314.959,621.567 313.5,621.5C 313.587,624.598 313.087,624.932 312,622.5C 310.025,622.508 308.191,623.508 306.5,625.5C 305.893,625.376 305.56,625.043 305.5,624.5C 345.218,591.283 384.218,557.117 422.5,522C 421.833,521.333 421.167,521.333 420.5,522C 390.335,541.25 360.002,560.25 329.5,579C 320.292,594.583 310.959,610.083 301.5,625.5C 301.624,626.107 301.957,626.44 302.5,626.5C 302.44,627.043 302.107,627.376 301.5,627.5C 300.274,625.722 298.607,624.722 296.5,624.5C 298.246,620.673 300.246,617.007 302.5,613.5C 312.167,597.5 321.833,581.5 331.5,565.5C 332.338,565.158 332.672,564.492 332.5,563.5C 336.579,563.466 337.246,562.133 334.5,559.5C 335.492,559.672 336.158,559.338 336.5,558.5C 337.773,556.287 338.773,553.954 339.5,551.5C 341.223,549.747 342.723,547.747 344,545.5C 344.74,544.251 344.573,543.251 343.5,542.5C 340.649,541.804 338.649,540.471 337.5,538.5C 339.735,538.795 341.735,538.461 343.5,537.5C 345.415,537.784 347.081,537.451 348.5,536.5C 365.083,507.67 381.416,478.67 397.5,449.5C 415.959,418.684 433.626,387.351 450.5,355.5C 457.388,344.021 464.555,332.687 472,321.5C 489.63,300.014 511.463,284.681 537.5,275.5C 545.464,273.95 553.464,272.617 561.5,271.5 Z"/></g>
<g><path style="opacity:1" fill="#1c2930" d="M 542.5,476.5 C 541.853,492.956 540.186,509.289 537.5,525.5C 525.888,541.115 513.888,556.448 501.5,571.5C 501.167,571.5 500.833,571.5 500.5,571.5C 500.565,571.062 500.399,570.728 500,570.5C 498.899,572.394 497.566,573.061 496,572.5C 495.951,575.416 494.784,576.416 492.5,575.5C 491.571,576.689 491.238,578.022 491.5,579.5C 487.083,579.042 483.75,580.708 481.5,584.5C 479.885,585.154 478.218,585.654 476.5,586C 475.5,587.667 474.167,589 472.5,590C 472.833,590.333 473.167,590.667 473.5,591C 470,593.167 466.5,595.333 463,597.5C 461.293,596.862 459.46,596.862 457.5,597.5C 457.5,598.833 457.5,600.167 457.5,601.5C 452.791,601.691 448.791,603.525 445.5,607C 443.444,607.311 441.444,607.811 439.5,608.5C 437.471,607.371 437.137,607.871 438.5,610C 433.842,612.653 429.175,615.319 424.5,618C 423.789,619.255 422.956,620.421 422,621.5C 420.387,620.378 419.22,620.878 418.5,623C 411.09,624.39 404.756,627.557 399.5,632.5C 397.234,633.314 394.9,633.814 392.5,634C 390.846,636.996 389.179,639.829 387.5,642.5C 371.976,651.677 355.976,660.011 339.5,667.5C 339.167,667.5 338.833,667.5 338.5,667.5C 337.244,667.461 336.244,667.961 335.5,669C 336.833,669.667 336.833,670.333 335.5,671C 331.634,672.349 327.801,672.515 324,671.5C 321.335,672.474 321.169,673.141 323.5,673.5C 279.86,742.149 236.193,810.816 192.5,879.5C 186.043,870.086 179.709,860.586 173.5,851C 170.664,851.085 168.331,852.251 166.5,854.5C 152.469,862.603 138.302,870.603 124,878.5C 167.657,815.936 213.324,754.603 261,694.5C 261.667,693.833 261.667,693.167 261,692.5C 252.039,696.816 242.872,700.316 233.5,703C 252.124,683.382 269.624,662.882 286,641.5C 289.511,635.805 293.011,630.139 296.5,624.5C 298.607,624.722 300.274,625.722 301.5,627.5C 302.107,627.376 302.44,627.043 302.5,626.5C 303.5,625.833 304.5,625.167 305.5,624.5C 305.56,625.043 305.893,625.376 306.5,625.5C 308.191,623.508 310.025,622.508 312,622.5C 313.087,624.932 313.587,624.598 313.5,621.5C 314.959,621.567 316.292,621.234 317.5,620.5C 317.735,621.097 318.235,621.43 319,621.5C 327.009,617.941 335.176,614.774 343.5,612C 406.604,582.977 469.604,553.977 532.5,525C 533.126,524.25 533.626,523.416 534,522.5C 535.112,509.487 536.279,496.487 537.5,483.5C 539.567,480.207 540.9,476.54 541.5,472.5C 542.429,473.689 542.762,475.022 542.5,476.5 Z M 232.5,783.5 C 237.122,787.512 238.122,792.178 235.5,797.5C 232.011,800.489 229.511,804.156 228,808.5C 215.292,826.597 203.625,845.264 193,864.5C 191.315,862.983 189.815,861.316 188.5,859.5C 185.693,854.2 182.693,849.033 179.5,844C 184.962,827.666 190.795,811.499 197,795.5C 199.001,792.156 201.001,788.823 203,785.5C 202.464,789.132 201.298,792.632 199.5,796C 203.488,797.387 207.488,798.887 211.5,800.5C 214.068,798.283 217.068,797.116 220.5,797C 222.35,794.982 224.35,793.149 226.5,791.5C 228.297,794.096 229.631,793.763 230.5,790.5C 229.572,789.232 229.405,787.899 230,786.5C 231.045,785.627 231.878,784.627 232.5,783.5 Z M 231.5,780.5 C 231.167,780.5 230.833,780.5 230.5,780.5C 229.537,779.637 229.537,778.97 230.5,778.5C 231.298,778.957 231.631,779.624 231.5,780.5 Z M 225.5,768.5 C 226.249,769.531 226.915,770.698 227.5,772C 227.167,772.167 226.833,772.333 226.5,772.5C 225.571,771.311 225.238,769.978 225.5,768.5 Z"/></g>
<g><path style="opacity:1" fill="#050a0d" d="M 201.5,538.5 C 248.664,537.501 295.997,537.168 343.5,537.5C 341.735,538.461 339.735,538.795 337.5,538.5C 291.802,538.536 246.468,538.536 201.5,538.5 Z"/></g>
<g><path style="opacity:0.753" fill="#768187" d="M 703.5,524.5 C 703.174,533.017 703.507,541.35 704.5,549.5C 704.217,550.289 703.717,550.956 703,551.5C 702.176,542.324 702.343,533.324 703.5,524.5 Z"/></g>
<g><path style="opacity:1" fill="#202e35" d="M 201.5,538.5 C 246.468,538.536 291.802,538.536 337.5,538.5C 338.649,540.471 340.649,541.804 343.5,542.5C 299.167,542.5 254.833,542.5 210.5,542.5C 207.5,542.5 204.5,542.5 201.5,542.5C 201.5,541.167 201.5,539.833 201.5,538.5 Z"/></g>
<g><path style="opacity:0.958" fill="#f9fbf8" d="M 210.5,542.5 C 254.833,542.5 299.167,542.5 343.5,542.5C 344.573,543.251 344.74,544.251 344,545.5C 342.723,547.747 341.223,549.747 339.5,551.5C 339.55,549.41 338.55,548.077 336.5,547.5C 298.204,548.161 259.87,548.827 221.5,549.5C 222.5,550.833 223.5,552.167 224.5,553.5C 224.137,554.183 223.804,554.85 223.5,555.5C 221.188,553.188 218.854,550.854 216.5,548.5C 216.5,547.833 216.167,547.5 215.5,547.5C 213.833,545.833 212.167,544.167 210.5,542.5 Z"/></g>
<g><path style="opacity:0.805" fill="#f9f6e9" d="M 339.5,551.5 C 338.773,553.954 337.773,556.287 336.5,558.5C 298.833,558.5 261.167,558.5 223.5,558.5C 223.5,557.5 223.5,556.5 223.5,555.5C 223.804,554.85 224.137,554.183 224.5,553.5C 223.5,552.167 222.5,550.833 221.5,549.5C 259.87,548.827 298.204,548.161 336.5,547.5C 338.55,548.077 339.55,549.41 339.5,551.5 Z"/></g>
<g><path style="opacity:0.992" fill="#1e2a2d" d="M 334.5,559.5 C 337.246,562.133 336.579,563.466 332.5,563.5C 333.323,559.867 332.156,559.534 329,562.5C 312.223,561.955 295.223,561.622 278,561.5C 265.5,561.833 253,562.167 240.5,562.5C 237.358,563.167 234.358,563.834 231.5,564.5C 204.833,564.5 178.167,564.5 151.5,564.5C 151.5,562.833 151.5,561.167 151.5,559.5C 212.5,559.5 273.5,559.5 334.5,559.5 Z"/></g>
<g><path style="opacity:1" fill="#364248" d="M 332.5,563.5 C 332.672,564.492 332.338,565.158 331.5,565.5C 298.338,564.502 265.004,564.168 231.5,564.5C 234.358,563.834 237.358,563.167 240.5,562.5C 253,562.167 265.5,561.833 278,561.5C 295.223,561.622 312.223,561.955 329,562.5C 332.156,559.534 333.323,559.867 332.5,563.5 Z"/></g>
<g><path style="opacity:0.419" fill="#d3dbd9" d="M 216.5,548.5 C 218.854,550.854 221.188,553.188 223.5,555.5C 223.5,556.5 223.5,557.5 223.5,558.5C 261.167,558.5 298.833,558.5 336.5,558.5C 336.158,559.338 335.492,559.672 334.5,559.5C 273.5,559.5 212.5,559.5 151.5,559.5C 151.5,561.167 151.5,562.833 151.5,564.5C 178.167,564.5 204.833,564.5 231.5,564.5C 231.369,565.239 231.536,565.906 232,566.5C 238.49,571.324 244.323,576.824 249.5,583C 256.5,587.833 263.5,592.667 270.5,597.5C 275.423,600.283 280.423,602.783 285.5,605C 287.763,606.617 289.763,608.45 291.5,610.5C 288.252,610.336 285.252,609.336 282.5,607.5C 275.329,602.747 267.996,598.247 260.5,594C 249.521,585.685 238.854,577.018 228.5,568C 202.167,567.667 175.833,567.333 149.5,567C 147.522,564.503 147.022,561.669 148,558.5C 148.772,557.151 149.939,556.318 151.5,556C 172.833,555.667 194.167,555.333 215.5,555C 216.5,554.667 217.5,554.333 218.5,554C 216.115,553.945 214.781,552.778 214.5,550.5C 214.747,549.287 215.414,548.62 216.5,548.5 Z"/></g>
<g><path style="opacity:1" fill="#ece4d7" d="M 305.5,624.5 C 304.5,625.167 303.5,625.833 302.5,626.5C 301.957,626.44 301.624,626.107 301.5,625.5C 310.959,610.083 320.292,594.583 329.5,579C 360.002,560.25 390.335,541.25 420.5,522C 421.167,521.333 421.833,521.333 422.5,522C 384.218,557.117 345.218,591.283 305.5,624.5 Z"/></g>
<g><path style="opacity:1" fill="#fcf9eb" d="M 231.5,564.5 C 265.004,564.168 298.338,564.502 331.5,565.5C 321.833,581.5 312.167,597.5 302.5,613.5C 301.322,612.338 300.155,611.338 299,610.5C 298.667,611.167 298.333,611.833 298,612.5C 296.494,610.935 294.994,610.601 293.5,611.5C 292.833,611.167 292.167,610.833 291.5,610.5C 289.763,608.45 287.763,606.617 285.5,605C 280.423,602.783 275.423,600.283 270.5,597.5C 263.5,592.667 256.5,587.833 249.5,583C 244.323,576.824 238.49,571.324 232,566.5C 231.536,565.906 231.369,565.239 231.5,564.5 Z"/></g>
<g><path style="opacity:1" fill="#1e2b30" d="M 703.5,524.5 C 702.343,533.324 702.176,542.324 703,551.5C 703.717,550.956 704.217,550.289 704.5,549.5C 708.934,542.951 713.601,536.617 718.5,530.5C 719.659,531.456 720.826,532.456 722,533.5C 722.765,533.43 723.265,533.097 723.5,532.5C 724.167,532.167 724.833,531.833 725.5,531.5C 725.611,532.117 725.944,532.617 726.5,533C 723.829,534.273 721.495,535.773 719.5,537.5C 720.127,538.417 720.461,539.417 720.5,540.5C 716.914,542.58 713.747,545.246 711,548.5C 701.093,562.411 690.427,575.744 679,588.5C 678.409,589.483 678.743,590.15 680,590.5C 683.709,589.801 687.209,588.801 690.5,587.5C 699.188,586.196 707.855,584.696 716.5,583C 730.797,571.181 746.131,560.847 762.5,552C 775.063,546.988 788.063,545.321 801.5,547C 814.093,548.375 826.426,550.708 838.5,554C 829.446,563.054 820.446,572.054 811.5,581C 795.481,593.008 777.481,597.674 757.5,595C 744.666,592.833 731.833,590.667 719,588.5C 706.785,590.41 694.618,592.576 682.5,595C 712.206,601.843 741.872,608.843 771.5,616C 785.494,615.744 799.494,615.744 813.5,616C 829.759,618.709 843.259,626.209 854,638.5C 860.996,647.822 867.496,657.488 873.5,667.5C 858.547,669.332 843.547,669.832 828.5,669C 808.797,666.237 793.297,656.737 782,640.5C 778.299,634.294 774.799,627.96 771.5,621.5C 738.02,613.047 704.353,605.38 670.5,598.5C 670.167,596.5 669.833,594.5 669.5,592.5C 678.454,581.041 687.62,569.708 697,558.5C 697.667,543.833 697.667,529.167 697,514.5C 680.748,488.661 680.415,462.661 696,436.5C 700.341,429.821 704.175,422.821 707.5,415.5C 708.002,414.479 708.668,414.312 709.5,415C 715.721,422.888 721.555,431.055 727,439.5C 737.445,463.718 734.778,486.385 719,507.5C 713.917,513.408 708.75,519.075 703.5,524.5 Z M 809.5,553.5 C 810.833,553.5 812.167,553.5 813.5,553.5C 813.64,555.124 812.973,556.29 811.5,557C 789.256,563.392 766.923,569.559 744.5,575.5C 743.068,575.267 742.568,574.6 743,573.5C 744.833,571.667 746.667,569.833 748.5,568C 766.881,555.856 787.214,551.023 809.5,553.5 Z"/></g>
<g><path style="opacity:0.887" fill="#a4b1b5" d="M 708.5,423.5 C 713.136,428.979 717.636,434.646 722,440.5C 722.167,441.5 722.333,442.5 722.5,443.5C 718.817,453.865 714.317,463.865 709,473.5C 708.5,456.837 708.333,440.17 708.5,423.5 Z"/></g>
<g><path style="opacity:0.192" fill="#d1dde1" d="M 587.5,266.5 C 589.816,267.658 592.15,268.825 594.5,270C 620.945,275.057 640.945,289.223 654.5,312.5C 655.452,314.045 655.785,315.712 655.5,317.5C 672.322,321.73 689.322,325.23 706.5,328C 709.7,328.598 712.033,330.265 713.5,333C 712.899,334.605 711.899,335.938 710.5,337C 694.051,340.698 677.718,345.198 661.5,350.5C 660.672,354.796 660.172,359.129 660,363.5C 656.114,376.543 651.447,389.209 646,401.5C 645.667,418.167 645.333,434.833 645,451.5C 643.688,463.01 643.021,474.677 643,486.5C 641.938,490.637 641.105,494.804 640.5,499C 641.226,501.62 640.726,504.12 639,506.5C 637.863,518.156 635.53,529.49 632,540.5C 618.558,579.478 596.391,612.811 565.5,640.5C 539.641,661.103 510.308,672.769 477.5,675.5C 473.107,675.491 469.107,674.824 465.5,673.5C 502.032,673.381 534.365,661.881 562.5,639C 592.074,614.335 613.074,583.835 625.5,547.5C 634.559,524.836 639.226,501.17 639.5,476.5C 641.059,451.679 642.226,426.679 643,401.5C 649.742,387.108 654.575,372.108 657.5,356.5C 657.575,353.794 657.908,351.127 658.5,348.5C 675.538,343.49 692.538,338.323 709.5,333C 692.253,328.95 674.919,325.284 657.5,322C 653.033,315.523 648.533,309.023 644,302.5C 627.533,284.85 607.366,274.517 583.5,271.5C 585.167,271.5 586.833,271.5 588.5,271.5C 588.371,269.784 588.038,268.117 587.5,266.5 Z"/></g>
<g><path style="opacity:0.702" fill="#d1dcde" d="M 643.5,626.5 C 652.5,617.167 661.5,607.833 670.5,598.5C 704.353,605.38 738.02,613.047 771.5,621.5C 774.799,627.96 778.299,634.294 782,640.5C 793.297,656.737 808.797,666.237 828.5,669C 843.547,669.832 858.547,669.332 873.5,667.5C 867.496,657.488 860.996,647.822 854,638.5C 843.259,626.209 829.759,618.709 813.5,616C 799.494,615.744 785.494,615.744 771.5,616C 741.872,608.843 712.206,601.843 682.5,595C 694.618,592.576 706.785,590.41 719,588.5C 731.833,590.667 744.666,592.833 757.5,595C 777.481,597.674 795.481,593.008 811.5,581C 820.446,572.054 829.446,563.054 838.5,554C 826.426,550.708 814.093,548.375 801.5,547C 788.063,545.321 775.063,546.988 762.5,552C 746.131,560.847 730.797,571.181 716.5,583C 707.855,584.696 699.188,586.196 690.5,587.5C 692.116,586.011 694.116,585.011 696.5,584.5C 702.845,583.323 709.179,582.156 715.5,581C 725.5,573 735.5,565 745.5,557C 766.065,544.681 788.398,540.847 812.5,545.5C 821.849,547.23 831.182,548.897 840.5,550.5C 840.808,552.924 840.474,555.257 839.5,557.5C 829.875,566.658 820.209,575.824 810.5,585C 804.293,588.603 797.96,591.936 791.5,595C 778.318,597.496 764.984,598.163 751.5,597C 740.686,594.126 729.686,592.292 718.5,591.5C 710.406,592.339 702.406,593.506 694.5,595C 710.962,599.28 727.628,602.947 744.5,606C 750.009,607.193 755.342,608.86 760.5,611C 780.096,613.059 799.763,614.059 819.5,614C 835.102,617.933 848.268,626.433 859,639.5C 864.637,648.303 870.471,656.97 876.5,665.5C 877.833,667.167 877.833,668.833 876.5,670.5C 858.5,671.833 840.5,671.833 822.5,670.5C 811.5,668.505 801.834,663.838 793.5,656.5C 790.485,653.317 787.318,650.317 784,647.5C 778.467,639.571 773.3,631.404 768.5,623C 754.484,619.637 740.484,616.637 726.5,614C 711.544,610.176 696.544,606.176 681.5,602C 677.739,601.262 674.072,601.595 670.5,603C 662.918,610.483 655.251,617.983 647.5,625.5C 646.311,626.429 644.978,626.762 643.5,626.5 Z M 809.5,553.5 C 810.833,553.5 812.167,553.5 813.5,553.5C 813.64,555.124 812.973,556.29 811.5,557C 789.256,563.392 766.923,569.559 744.5,575.5C 743.068,575.267 742.568,574.6 743,573.5C 744.833,571.667 746.667,569.833 748.5,568C 766.881,555.856 787.214,551.023 809.5,553.5 Z"/></g>
<g><path style="opacity:0.596" fill="#d3dfe2" d="M 809.5,553.5 C 787.214,551.023 766.881,555.856 748.5,568C 746.667,569.833 744.833,571.667 743,573.5C 742.568,574.6 743.068,575.267 744.5,575.5C 766.923,569.559 789.256,563.392 811.5,557C 812.973,556.29 813.64,555.124 813.5,553.5C 817.172,554.021 820.838,554.687 824.5,555.5C 790.83,565.651 757.83,574.484 725.5,582C 735.223,574.611 745.223,567.611 755.5,561C 772.679,551.771 790.679,549.271 809.5,553.5 Z M 809.5,553.5 C 810.833,553.5 812.167,553.5 813.5,553.5C 813.64,555.124 812.973,556.29 811.5,557C 789.256,563.392 766.923,569.559 744.5,575.5C 743.068,575.267 742.568,574.6 743,573.5C 744.833,571.667 746.667,569.833 748.5,568C 766.881,555.856 787.214,551.023 809.5,553.5 Z"/></g>
<g><path style="opacity:1" fill="#1f2826" d="M 500.5,571.5 C 495.296,577.871 489.296,583.371 482.5,588C 453.612,605.061 424.612,621.894 395.5,638.5C 392.833,639.833 390.167,641.167 387.5,642.5C 389.179,639.829 390.846,636.996 392.5,634C 394.9,633.814 397.234,633.314 399.5,632.5C 404.756,627.557 411.09,624.39 418.5,623C 419.22,620.878 420.387,620.378 422,621.5C 422.956,620.421 423.789,619.255 424.5,618C 429.175,615.319 433.842,612.653 438.5,610C 437.137,607.871 437.471,607.371 439.5,608.5C 441.444,607.811 443.444,607.311 445.5,607C 448.791,603.525 452.791,601.691 457.5,601.5C 457.5,600.167 457.5,598.833 457.5,597.5C 459.46,596.862 461.293,596.862 463,597.5C 466.5,595.333 470,593.167 473.5,591C 473.167,590.667 472.833,590.333 472.5,590C 474.167,589 475.5,587.667 476.5,586C 478.218,585.654 479.885,585.154 481.5,584.5C 483.75,580.708 487.083,579.042 491.5,579.5C 491.238,578.022 491.571,576.689 492.5,575.5C 494.784,576.416 495.951,575.416 496,572.5C 497.566,573.061 498.899,572.394 500,570.5C 500.399,570.728 500.565,571.062 500.5,571.5 Z"/></g>
<g><path style="opacity:1" fill="#8d9ca2" d="M 324.5,622.5 C 325.873,622.343 327.207,622.51 328.5,623C 316.5,631.667 304.5,640.333 292.5,649C 288.813,651.336 285.147,653.336 281.5,655C 286.457,648.374 291.791,642.04 297.5,636C 306.313,630.927 315.313,626.427 324.5,622.5 Z"/></g>
<g><path style="opacity:1" fill="#9fadae" d="M 395.5,638.5 C 411.595,646.381 427.595,654.548 443.5,663C 448.588,664.89 453.588,666.723 458.5,668.5C 449.5,668.5 440.5,668.5 431.5,668.5C 400.662,668.831 369.995,668.498 339.5,667.5C 355.976,660.011 371.976,651.677 387.5,642.5C 390.167,641.167 392.833,639.833 395.5,638.5 Z"/></g>
<g><path style="opacity:1" fill="#394749" d="M 338.5,667.5 C 338.833,667.5 339.167,667.5 339.5,667.5C 369.995,668.498 400.662,668.831 431.5,668.5C 431.5,668.833 431.5,669.167 431.5,669.5C 400.149,670.159 369.149,669.492 338.5,667.5 Z"/></g>
<g><path style="opacity:0.758" fill="#132123" d="M 338.5,667.5 C 369.149,669.492 400.149,670.159 431.5,669.5C 437.176,669.334 442.843,669.501 448.5,670C 450.608,670.36 452.608,671.027 454.5,672C 451.518,672.498 448.518,672.665 445.5,672.5C 445.657,673.873 445.49,675.207 445,676.5C 444.667,675.833 444.333,675.167 444,674.5C 443.583,675.756 442.75,676.423 441.5,676.5C 437.991,673.885 433.991,672.885 429.5,673.5C 408.833,673.5 388.167,673.5 367.5,673.5C 352.833,673.5 338.167,673.5 323.5,673.5C 321.169,673.141 321.335,672.474 324,671.5C 327.801,672.515 331.634,672.349 335.5,671C 336.833,670.333 336.833,669.667 335.5,669C 336.244,667.961 337.244,667.461 338.5,667.5 Z"/></g>
<g><path style="opacity:0.047" fill="#d2dde0" d="M 323.5,673.5 C 338.167,673.5 352.833,673.5 367.5,673.5C 367.389,674.117 367.056,674.617 366.5,675C 353.167,675.333 339.833,675.667 326.5,676C 325.315,677.353 323.981,678.52 322.5,679.5C 321.702,681.078 321.202,682.744 321,684.5C 308.307,702.55 295.974,720.883 284,739.5C 274.799,755.636 264.799,771.303 254,786.5C 235.337,817.829 216.17,848.829 196.5,879.5C 193.265,882.072 190.265,881.739 187.5,878.5C 181.758,870.291 176.758,861.624 172.5,852.5C 170.827,854.086 168.827,854.753 166.5,854.5C 168.331,852.251 170.664,851.085 173.5,851C 179.709,860.586 186.043,870.086 192.5,879.5C 236.193,810.816 279.86,742.149 323.5,673.5 Z"/></g>
<g><path style="opacity:0.992" fill="#0e1a1f" d="M 785.5,698.5 C 785.5,699.833 785.5,701.167 785.5,702.5C 737.833,702.5 690.167,702.5 642.5,702.5C 687.251,701.564 734.251,700.731 783.5,700C 714.167,699.667 644.833,699.333 575.5,699C 645.499,698.5 715.499,698.333 785.5,698.5 Z"/></g>
<g><path style="opacity:1" fill="#414e53" d="M 642.5,702.5 C 690.167,702.5 737.833,702.5 785.5,702.5C 738.167,703.167 690.833,703.833 643.5,704.5C 642.662,704.158 642.328,703.492 642.5,702.5 Z"/></g>
<g><path style="opacity:0.999" fill="#243034" d="M 625.5,547.5 C 613.074,583.835 592.074,614.335 562.5,639C 534.365,661.881 502.032,673.381 465.5,673.5C 460.833,673.5 456.167,673.5 451.5,673.5C 445.169,673.549 445.169,674.549 451.5,676.5C 470.774,691.476 490.774,705.476 511.5,718.5C 517.037,716.912 522.37,717.412 527.5,720C 529.228,723.306 530.561,723.139 531.5,719.5C 529.766,715.299 529.266,710.965 530,706.5C 537.717,691.714 549.217,687.214 564.5,693C 581.193,677.638 597.859,662.305 614.5,647C 632.755,628.577 651.089,610.411 669.5,592.5C 669.833,594.5 670.167,596.5 670.5,598.5C 661.5,607.833 652.5,617.167 643.5,626.5C 641.491,628.169 639.491,629.836 637.5,631.5C 645.598,634.32 653.932,635.986 662.5,636.5C 662.577,637.75 663.244,638.583 664.5,639C 663.786,641.303 662.786,643.47 661.5,645.5C 660.71,644.206 659.71,643.039 658.5,642C 649.785,640.105 641.118,638.439 632.5,637C 611.134,657.368 589.467,677.368 567.5,697C 640.334,697.167 713.001,697.667 785.5,698.5C 715.499,698.333 645.499,698.5 575.5,699C 644.833,699.333 714.167,699.667 783.5,700C 734.251,700.731 687.251,701.564 642.5,702.5C 642.328,703.492 642.662,704.158 643.5,704.5C 671.456,722.819 699.122,741.652 726.5,761C 750.004,761.168 773.337,761.668 796.5,762.5C 773.498,762.333 750.498,762.5 727.5,763C 729.9,763.186 732.234,763.686 734.5,764.5C 731.023,765.167 727.689,765.834 724.5,766.5C 694.656,745.497 664.656,724.664 634.5,704C 610.833,703.333 587.167,703.333 563.5,704C 557.807,715.847 548.474,722.847 535.5,725C 531.555,728.946 528.389,733.446 526,738.5C 521.851,743.497 517.017,747.497 511.5,750.5C 508.784,750.678 506.117,751.178 503.5,752C 486.005,767.828 468.838,783.995 452,800.5C 440.61,816.225 429.61,832.225 419,848.5C 416.78,851.54 415.28,854.873 414.5,858.5C 407.756,859.59 406.256,857.59 410,852.5C 422.259,832.979 435.259,813.979 449,795.5C 465.333,779.833 481.667,764.167 498,748.5C 494.379,738.434 496.545,729.767 504.5,722.5C 483.648,706.913 462.648,691.58 441.5,676.5C 442.75,676.423 443.583,675.756 444,674.5C 444.333,675.167 444.667,675.833 445,676.5C 445.49,675.207 445.657,673.873 445.5,672.5C 448.518,672.665 451.518,672.498 454.5,672C 452.608,671.027 450.608,670.36 448.5,670C 442.843,669.501 437.176,669.334 431.5,669.5C 431.5,669.167 431.5,668.833 431.5,668.5C 440.5,668.5 449.5,668.5 458.5,668.5C 484.298,670.133 508.631,664.966 531.5,653C 574.638,627.685 604.972,591.518 622.5,544.5C 623.197,544.376 624.03,544.376 625,544.5C 625.483,545.448 625.649,546.448 625.5,547.5 Z"/></g>
<g><path style="opacity:0.408" fill="#cee4e9" d="M 451.5,673.5 C 451.5,674.5 451.5,675.5 451.5,676.5C 445.169,674.549 445.169,673.549 451.5,673.5 Z"/></g>
<g><path style="opacity:0.314" fill="#d2ddde" d="M 302.5,613.5 C 300.246,617.007 298.246,620.673 296.5,624.5C 293.011,630.139 289.511,635.805 286,641.5C 269.624,662.882 252.124,683.382 233.5,703C 242.872,700.316 252.039,696.816 261,692.5C 261.667,693.167 261.667,693.833 261,694.5C 213.324,754.603 167.657,815.936 124,878.5C 138.302,870.603 152.469,862.603 166.5,854.5C 165.934,856.078 164.934,857.412 163.5,858.5C 152.357,864.237 141.69,870.737 131.5,878C 128.124,879.899 124.457,880.732 120.5,880.5C 120.192,878.076 120.526,875.743 121.5,873.5C 147.474,840.124 172.641,806.124 197,771.5C 198.684,769.649 200.517,767.982 202.5,766.5C 216.745,747.026 231.245,727.693 246,708.5C 248.736,705.484 251.57,702.651 254.5,700C 253.584,699.626 252.75,699.126 252,698.5C 246.13,700.696 240.463,703.363 235,706.5C 233.56,705.852 232.06,705.519 230.5,705.5C 230.338,703.473 230.505,701.473 231,699.5C 256.511,675.848 278.011,649.181 295.5,619.5C 296.474,617.257 296.808,614.924 296.5,612.5C 295.209,612.737 294.209,612.404 293.5,611.5C 294.994,610.601 296.494,610.935 298,612.5C 298.333,611.833 298.667,611.167 299,610.5C 300.155,611.338 301.322,612.338 302.5,613.5 Z"/></g>
<g><path style="opacity:0.784" fill="#d3e0e2" d="M 643.5,626.5 C 641.709,629.75 642.709,631.583 646.5,632C 651.705,632.241 656.872,632.741 662,633.5C 683.87,627.494 704.703,629.828 724.5,640.5C 733.705,647.715 742.205,655.715 750,664.5C 752.268,667.085 753.434,670.085 753.5,673.5C 740.449,675.063 727.449,677.063 714.5,679.5C 690.326,677.406 671.66,666.073 658.5,645.5C 652.212,642.96 645.712,641.293 639,640.5C 635.884,640.574 633.051,641.408 630.5,643C 611.866,659.633 593.533,676.633 575.5,694C 609.857,695.164 644.357,695.664 679,695.5C 714.971,695.651 750.804,695.151 786.5,694C 790.032,697.39 790.366,701.057 787.5,705C 742.459,705.828 697.459,705.661 652.5,704.5C 651.5,705 650.5,705.5 649.5,706C 658.198,710.197 666.531,715.03 674.5,720.5C 692.374,733.263 710.374,745.763 728.5,758C 751.833,758.333 775.167,758.667 798.5,759C 801.366,762.943 801.032,766.61 797.5,770C 773.16,770.833 748.826,770.666 724.5,769.5C 723.271,768.719 721.938,768.219 720.5,768C 704.989,756.271 689.322,744.771 673.5,733.5C 665.496,728.765 657.496,723.932 649.5,719C 646.748,716.316 644.081,713.65 641.5,711C 638.062,708.747 634.395,707.08 630.5,706C 609.167,705.333 587.833,705.333 566.5,706C 562.5,710.333 558.5,714.667 554.5,719C 548.175,722.269 541.842,725.436 535.5,728.5C 531.247,736.321 525.58,742.988 518.5,748.5C 516.49,750.171 514.157,750.838 511.5,750.5C 517.017,747.497 521.851,743.497 526,738.5C 528.389,733.446 531.555,728.946 535.5,725C 548.474,722.847 557.807,715.847 563.5,704C 587.167,703.333 610.833,703.333 634.5,704C 664.656,724.664 694.656,745.497 724.5,766.5C 748.425,767.49 772.425,767.823 796.5,767.5C 796.5,765.833 796.5,764.167 796.5,762.5C 773.337,761.668 750.004,761.168 726.5,761C 699.122,741.652 671.456,722.819 643.5,704.5C 690.833,703.833 738.167,703.167 785.5,702.5C 785.5,701.167 785.5,699.833 785.5,698.5C 713.001,697.667 640.334,697.167 567.5,697C 589.467,677.368 611.134,657.368 632.5,637C 641.118,638.439 649.785,640.105 658.5,642C 659.71,643.039 660.71,644.206 661.5,645.5C 675.363,668.432 695.696,678.598 722.5,676C 732.037,674.949 741.371,672.949 750.5,670C 740.446,654.939 727.113,643.939 710.5,637C 703.006,634.771 695.339,633.605 687.5,633.5C 679.122,634.174 670.789,635.174 662.5,636.5C 653.932,635.986 645.598,634.32 637.5,631.5C 639.491,629.836 641.491,628.169 643.5,626.5 Z"/></g>
<g><path style="opacity:1" fill="#1d292f" d="M 661.5,645.5 C 662.786,643.47 663.786,641.303 664.5,639C 663.244,638.583 662.577,637.75 662.5,636.5C 670.789,635.174 679.122,634.174 687.5,633.5C 695.339,633.605 703.006,634.771 710.5,637C 727.113,643.939 740.446,654.939 750.5,670C 741.371,672.949 732.037,674.949 722.5,676C 695.696,678.598 675.363,668.432 661.5,645.5 Z"/></g>
<g><path style="opacity:1" fill="#202e30" d="M 796.5,762.5 C 796.5,764.167 796.5,765.833 796.5,767.5C 772.425,767.823 748.425,767.49 724.5,766.5C 727.689,765.834 731.023,765.167 734.5,764.5C 732.234,763.686 729.9,763.186 727.5,763C 750.498,762.5 773.498,762.333 796.5,762.5 Z"/></g>
<g><path style="opacity:0.561" fill="#d2dddf" d="M 429.5,673.5 C 433.991,672.885 437.991,673.885 441.5,676.5C 462.648,691.58 483.648,706.913 504.5,722.5C 496.545,729.767 494.379,738.434 498,748.5C 481.667,764.167 465.333,779.833 449,795.5C 435.259,813.979 422.259,832.979 410,852.5C 406.256,857.59 407.756,859.59 414.5,858.5C 415.28,854.873 416.78,851.54 419,848.5C 429.61,832.225 440.61,816.225 452,800.5C 468.838,783.995 486.005,767.828 503.5,752C 506.117,751.178 508.784,750.678 511.5,750.5C 507.892,752.746 504.225,755.079 500.5,757.5C 485.581,772.621 470.248,787.288 454.5,801.5C 441.698,819.87 429.364,838.537 417.5,857.5C 416.5,858.333 415.5,859.167 414.5,860C 410.848,860.499 407.182,860.665 403.5,860.5C 403.215,858.712 403.548,857.045 404.5,855.5C 417.583,834.336 431.416,813.669 446,793.5C 461.809,778.268 477.809,763.268 494,748.5C 494.169,742.141 494.669,735.807 495.5,729.5C 498.949,726.241 499.615,722.741 497.5,719C 478.81,707.145 460.81,694.312 443.5,680.5C 439.153,677.235 434.487,674.902 429.5,673.5 Z"/></g>
<g><path style="opacity:0.073" fill="#a0aeb0" d="M 237.5,799.5 C 237.5,798.167 236.833,797.5 235.5,797.5C 238.122,792.178 237.122,787.512 232.5,783.5C 232.5,782.833 232.5,782.167 232.5,781.5C 232.5,780.833 232.167,780.5 231.5,780.5C 231.631,779.624 231.298,778.957 230.5,778.5C 229.537,778.97 229.537,779.637 230.5,780.5C 230.363,785.876 228.196,787.543 224,785.5C 223.506,787.134 223.34,788.801 223.5,790.5C 222.448,790.351 221.448,790.517 220.5,791C 221.451,791.718 221.617,792.551 221,793.5C 219.663,792.235 218.163,791.735 216.5,792C 215,793.5 213.5,795 212,796.5C 209.704,793.961 207.204,792.461 204.5,792C 205.794,788.719 207.794,786.052 210.5,784C 209.354,783.355 208.354,782.522 207.5,781.5C 206.478,781.855 205.811,782.522 205.5,783.5C 204.833,783.5 204.5,783.833 204.5,784.5C 202.859,783.853 201.526,782.853 200.5,781.5C 207.459,771.874 214.792,762.541 222.5,753.5C 229.755,766.178 236.088,779.345 241.5,793C 240.774,795.634 239.441,797.801 237.5,799.5 Z M 231.5,780.5 C 231.167,780.5 230.833,780.5 230.5,780.5C 229.537,779.637 229.537,778.97 230.5,778.5C 231.298,778.957 231.631,779.624 231.5,780.5 Z M 225.5,768.5 C 225.238,769.978 225.571,771.311 226.5,772.5C 226.833,772.333 227.167,772.167 227.5,772C 226.915,770.698 226.249,769.531 225.5,768.5 Z"/></g>
<g><path style="opacity:0.327" fill="#b1bbbd" d="M 230.5,780.5 C 230.833,780.5 231.167,780.5 231.5,780.5C 232.167,780.5 232.5,780.833 232.5,781.5C 231.167,782.167 231.167,782.833 232.5,783.5C 231.878,784.627 231.045,785.627 230,786.5C 229.405,787.899 229.572,789.232 230.5,790.5C 229.631,793.763 228.297,794.096 226.5,791.5C 224.35,793.149 222.35,794.982 220.5,797C 217.068,797.116 214.068,798.283 211.5,800.5C 207.488,798.887 203.488,797.387 199.5,796C 201.298,792.632 202.464,789.132 203,785.5C 201.001,788.823 199.001,792.156 197,795.5C 190.795,811.499 184.962,827.666 179.5,844C 182.693,849.033 185.693,854.2 188.5,859.5C 189.815,861.316 191.315,862.983 193,864.5C 203.625,845.264 215.292,826.597 228,808.5C 229.511,804.156 232.011,800.489 235.5,797.5C 236.833,797.5 237.5,798.167 237.5,799.5C 222.414,823.337 207.581,847.337 193,871.5C 187.484,862.656 181.984,853.823 176.5,845C 182.864,826.24 189.031,807.407 195,788.5C 196.697,785.98 198.53,783.647 200.5,781.5C 201.526,782.853 202.859,783.853 204.5,784.5C 205.206,785.557 205.539,785.224 205.5,783.5C 205.811,782.522 206.478,781.855 207.5,781.5C 208.354,782.522 209.354,783.355 210.5,784C 207.794,786.052 205.794,788.719 204.5,792C 207.204,792.461 209.704,793.961 212,796.5C 213.5,795 215,793.5 216.5,792C 218.163,791.735 219.663,792.235 221,793.5C 221.617,792.551 221.451,791.718 220.5,791C 221.448,790.517 222.448,790.351 223.5,790.5C 223.34,788.801 223.506,787.134 224,785.5C 228.196,787.543 230.363,785.876 230.5,780.5 Z"/></g>
</svg>
